<?xml version="1.0" standalone="no"?><!DOCTYPE svg PUBLIC "-//W3C//DTD SVG 1.1//EN" "http://www.w3.org/Graphics/SVG/1.1/DTD/svg11.dtd"><svg t="1731378911372" class="icon" viewBox="0 0 1024 1024" version="1.1" xmlns="http://www.w3.org/2000/svg" p-id="3470" xmlns:xlink="http://www.w3.org/1999/xlink" width="200" height="200"><path d="M857 631.33c-4.66 0-41.3 1.32-81.49 2.82a313.2 313.2 0 0 0 9.49-74.69v-28.37a275.34 275.34 0 0 0-1.6-29.56c82.81-12.1 146.6-83.59 146.6-169.7 0-94.56-76.93-171.5-171.5-171.5a171.47 171.47 0 0 0-160.72 111.51 274.45 274.45 0 0 0-171.56 0A171.47 171.47 0 0 0 265.5 160.33c-94.57 0-171.5 76.94-171.5 171.5 0 86.11 63.79 157.6 146.6 169.7a275.34 275.34 0 0 0-1.6 29.56v28.37a313.63 313.63 0 0 0 9.51 74.8c-41.35-1.54-79.73-2.93-84.51-2.93a25 25 0 0 0 0 50c4.63 0 50 1.66 101.05 3.59a378.92 378.92 0 0 0 25.1 50.43c-53.06 10-98.28 18.23-106.11 19a25 25 0 0 0 1 50c3.62 0 8.57 0 98.86-16.93 13-2.43 25.94-4.88 37.71-7.12 24.2 29.5 51.56 53.15 81.41 70.36 35 20.19 71.7 30.43 109 30.43s74-10.24 109-30.43c29.68-17.11 56.9-40.6 81-69.87 11.07 2.11 23.07 4.37 35.12 6.63 90.29 16.93 95.24 16.93 98.86 16.93a25 25 0 0 0 1-50c-7.7-0.76-51.52-8.72-103.41-18.49A380.76 380.76 0 0 0 759 684.8c49.78-1.87 93.46-3.46 98-3.47a25 25 0 0 0 0-50z m-672.73 123z m651.85 0z m-155.39-28.51l-21-4A25 25 0 0 0 645 769.24a239.55 239.55 0 0 1-49 38.09c-19.52 11.25-39.52 18.52-59.72 21.76a25.36 25.36 0 0 0 0.67-5.76v-43.16c19.29-5.17 32.6-16.14 32.6-28.84 0-17.67-25.79-32-57.6-32s-57.6 14.33-57.6 32c0 12.7 13.31 23.67 32.6 28.84v43.16a25.36 25.36 0 0 0 0.67 5.76c-20.2-3.24-40.2-10.51-59.72-21.76a240.39 240.39 0 0 1-49.9-39.07 25 25 0 0 0-16.75-46.48c-6.06 1.18-12.19 2.35-18.34 3.53a327.33 327.33 0 0 1-22.2-38.31l33.29 1.31h1a25 25 0 0 0 1-50l-55.22-2.12c-7.68-25.72-11.78-51.8-11.78-76.73v-28.37a224.34 224.34 0 0 1 5.09-47.52 25 25 0 0 0-24.43-30.3H269c-1.15 0-2.3 0.05-3.46 0.05A121.5 121.5 0 1 1 385 309.69a25 25 0 0 0 34.93 18.25 223.54 223.54 0 0 1 184.18 0A25 25 0 0 0 639 309.69a121.51 121.51 0 1 1 119.5 143.64c-1.16 0-2.31 0-3.46-0.05a25 25 0 0 0-25.13 30.29 224.34 224.34 0 0 1 5.09 47.52v28.37c0 24.89-4.09 50.93-11.72 76.66L665 638.35a25 25 0 0 0 1 50h1l36.37-1.4a324 324 0 0 1-22.64 38.87z" p-id="3471"></path><path d="M615.88 443.45A33.53 33.53 0 1 0 649.41 477a33.53 33.53 0 0 0-33.53-33.55z" p-id="3472"></path><path d="M393.88 470.95m-33.53 0a33.53 33.53 0 1 0 67.06 0 33.53 33.53 0 1 0-67.06 0Z" p-id="3473"></path></svg>