<?xml version="1.0" standalone="no"?><!DOCTYPE svg PUBLIC "-//W3C//DTD SVG 1.1//EN" "http://www.w3.org/Graphics/SVG/1.1/DTD/svg11.dtd"><svg t="1731378907185" class="icon" viewBox="0 0 1024 1024" version="1.1" xmlns="http://www.w3.org/2000/svg" p-id="3130" xmlns:xlink="http://www.w3.org/1999/xlink" width="200" height="200"><path d="M415.76 508.9m-31.04 0a31.04 31.04 0 1 0 62.08 0 31.04 31.04 0 1 0-62.08 0Z" p-id="3131"></path><path d="M605.547505 508.934255m-30.000488 7.965695a31.04 31.04 0 1 0 60.000977-15.93139 31.04 31.04 0 1 0-60.000977 15.93139Z" p-id="3132"></path><path d="M614.75 638l-61-49.7a66.31 66.31 0 0 0-83.47 0l-61 49.7a66.07 66.07 0 0 0 0 102.4l61 49.7a66.31 66.31 0 0 0 83.47 0l61-49.7a66.07 66.07 0 0 0 0-102.4zM501.9 627.09a16.09 16.09 0 0 1 20.29 0l44.86 36.57a190 190 0 0 0-97.42-4.43c-3.55 0.77-7 1.62-10.24 2.51z m20.29 124.28a16.12 16.12 0 0 1-20.29 0l-44.53-36.3a145.67 145.67 0 0 1 24.79-7.38c28.25-5.75 56.14-2.88 83.19 8.49z" p-id="3133"></path><path d="M783 302.07c-17.52-57.44-74.4-81.16-81.09-83.77-4.85-13.9-12.74-27.89-25.4-39.52-28.51-26.15-71.59-32.59-128.11-19.18a129.64 129.64 0 0 0-53.74-36.5 148.93 148.93 0 0 0-60.55-8.6c-50.95 1.08-91.49 17.09-120.49 47.61-44.29 46.62-44.28 110.35-44.14 117.36 0 41.55 10.5 75.56 31.09 101.46-18.22 24.82-32.71 53.64-43.18 85.94-10 30.9-16.38 65-18.93 101.49-4 56.47 2.47 100.68 3.84 109.19C250.48 795 342.48 849.22 346.41 851.47l0.36 0.21C405.24 884 458.2 898.5 484.56 904.25a127.82 127.82 0 0 0 55 0c26.36-5.75 79.31-20.24 137.79-52.57l0.36-0.21c3.93-2.26 96.31-56.65 104.16-174.65C783 666 794.24 546.39 751.79 438.69c33.14-49.88 43.64-95.8 31.21-136.62zM349.87 196.56c19.61-20.64 48.58-31.44 86.1-32.09a23.17 23.17 0 0 0 2.35-0.15 100.63 100.63 0 0 1 39.25 5.77c27.45 10 45.61 31.65 54 64.4A25 25 0 0 0 580 222.1q-2.29-8.94-5.21-16.9c38.78-6.59 58.15 1.57 67.72 10.27 10.75 9.78 14.41 29.14 15.61 43.07a42.11 42.11 0 0 0 14.1 28.09l0.28 0.24a20.86 20.86 0 0 0 24.58 2.13 25 25 0 0 0 9.65-10.7c11.18 8.5 23.31 21.23 28.52 38.66 5.84 19.54 2.41 42.41-10.18 68.25-28.66-45.84-67.13-78.89-114.74-98.44a24.85 24.85 0 0 0-5.59-1.57 24.76 24.76 0 0 0-6.66-3.28c-27.18-8.71-50.52-7.49-69.37 3.63-22.66 13.35-29.34 36-30.73 41.9-6.08 22.54-18.18 38.73-36 48.13a71.3 71.3 0 0 1-27 8.05 13 13 0 0 0-2 0.13c-0.51 0-51.91 4.81-84.59-24.77-19.16-17.35-28.88-44.21-28.87-79.85v-0.85c-0.07-0.45-0.81-48.95 30.35-81.73z m382.21 475.36c0 0.39-0.07 0.77-0.1 1.15-2.43 37.9-16.29 72-41.19 101.31-18.24 21.48-36.22 32.64-38 33.72-52.79 29.13-100.3 42.14-123.95 47.31a78.48 78.48 0 0 1-33.63 0c-23.65-5.17-71.16-18.18-124-47.31-1.76-1.07-19.74-12.23-38-33.72-24.9-29.32-38.76-63.41-41.19-101.31a26.29 26.29 0 0 0-0.32-2.67c-0.07-0.44-7.42-44-3.37-99.76 5.55-76.24 28.49-126.19 50.47-157.33 32.05 17.95 66.78 20.8 85.53 20.8 6.29 0 10.78-0.32 12.76-0.5a119.52 119.52 0 0 0 45.45-12.38c22.17-11 51.22-34 63.78-81.31a9.75 9.75 0 0 0 0.32-1.27c0.39-1.3 2.42-7.25 7.67-10.17 5.9-3.28 16-2.9 28.44 1.09a26.56 26.56 0 0 0 3.73 0.89 25 25 0 0 0 4.76 2.58C637.3 351.93 672.85 387.23 697 438c48.73 102.27 35.22 232.64 35.08 233.92z" p-id="3134"></path></svg>