<?xml version="1.0" standalone="no"?><!DOCTYPE svg PUBLIC "-//W3C//DTD SVG 1.1//EN" "http://www.w3.org/Graphics/SVG/1.1/DTD/svg11.dtd"><svg t="1731378882348" class="icon" viewBox="0 0 1024 1024" version="1.1" xmlns="http://www.w3.org/2000/svg" p-id="2111" xmlns:xlink="http://www.w3.org/1999/xlink" width="200" height="200"><path d="M410.12 458.55a35.21 35.21 0 1 0 35.21 35.21 35.21 35.21 0 0 0-35.21-35.21z" p-id="2112"></path><path d="M616.84 493.76m-35.21 0a35.21 35.21 0 1 0 70.42 0 35.21 35.21 0 1 0-70.42 0Z" p-id="2113"></path><path d="M920.41 502.12c-5.64-40.94-15.4-79.49-29-114.57-17.23-44.41-40.7-83.38-69.77-115.81-70.71-78.9-173.32-119.29-305-120.09a25 25 0 0 0-3.59-0.26c-133.63 0-237.61 40.41-309 120.11-29.07 32.43-52.55 71.4-69.78 115.81-13.61 35.08-23.37 73.63-29 114.57-8.83 64-4.81 113.5-3.93 122.58 0.25 35.37 11 63.35 31.87 83.2 27.35 26 62.23 28.21 73.41 28.21h0.83c12.14 81.28 82.41 143.83 167 143.83a167.3 167.3 0 0 0 103-35.06A169.71 169.71 0 0 0 513 807.2a169.71 169.71 0 0 0 35.59 37.44 167.3 167.3 0 0 0 103 35.06c84.53 0 154.75-62.42 167-143.59h0.44c11.19 0 46.07-2.24 73.42-28.21 20.89-19.85 31.61-47.83 31.87-83.2 0.89-9.07 4.91-58.55-3.91-122.58z m-404.1 219.24a4.91 4.91 0 0 1-6.6 0l-64.12-59a4.87 4.87 0 0 1 3.29-8.45h128.26a4.87 4.87 0 0 1 3.29 8.45z m358.18-100.69a25 25 0 0 0-0.15 2.73c0 21.55-5.39 37.69-16 48-15.34 14.84-38.27 14.76-40 14.72h-1.17c-11.23 0-27.53-2.92-39.47-28.22-7.39-15.68-9.34-32.18-9.67-35.51V453.54a25 25 0 1 0-50 0v171.53a164.46 164.46 0 0 0 13.67 52.54c9.23 20.22 22.24 35.56 38.16 45.45a118.88 118.88 0 0 1-225.26 39.55 55.91 55.91 0 0 0 5.54-4.45l64.12-59a54.86 54.86 0 0 0-37.14-95.25H448.88a54.86 54.86 0 0 0-37.14 95.25l64.12 59a55.91 55.91 0 0 0 5.54 4.45 118.88 118.88 0 0 1-225.3-40c15.74-9.89 28.62-25.15 37.77-45.21a164.16 164.16 0 0 0 13.67-52.54c0-0.56 0.06-1.11 0.06-1.67V453.3a25 25 0 0 0-50 0v168.81a117 117 0 0 1-9.22 34.51c-11.94 26.18-28.5 29.21-39.92 29.21h-1.17c-1.73 0-24.66 0.11-40-14.72-10.63-10.29-16-26.43-16-48a26.82 26.82 0 0 0-0.14-2.7c-0.06-0.49-5.15-49.5 3.81-113.17 5.19-36.93 14-71.52 26.25-102.82 15.05-38.49 35.32-72.08 60.26-99.84 60.9-67.81 151.06-102.51 268-103.21a25.6 25.6 0 0 0 3.18 0.21c118.68 0 210 34.73 271.58 103.24 24.93 27.76 45.2 61.35 60.25 99.85 12.24 31.29 21.07 65.88 26.26 102.81 8.89 63.72 3.8 112.73 3.75 113.19z" p-id="2114"></path></svg>