<?xml version="1.0" standalone="no"?><!DOCTYPE svg PUBLIC "-//W3C//DTD SVG 1.1//EN" "http://www.w3.org/Graphics/SVG/1.1/DTD/svg11.dtd"><svg t="1731378913797" class="icon" viewBox="0 0 1024 1024" version="1.1" xmlns="http://www.w3.org/2000/svg" p-id="3640" xmlns:xlink="http://www.w3.org/1999/xlink" width="200" height="200"><path d="M411 472.33a33.53 33.53 0 1 0-33.5-33.53 33.53 33.53 0 0 0 33.5 33.53zM607.87 472.33a33.53 33.53 0 1 0-33.53-33.53 33.53 33.53 0 0 0 33.53 33.53z" p-id="3641"></path><path d="M442.15 655.83m-31.18 0a31.18 31.18 0 1 0 62.36 0 31.18 31.18 0 1 0-62.36 0Z" p-id="3642"></path><path d="M580.64 655.83m-31.18 0a31.18 31.18 0 1 0 62.36 0 31.18 31.18 0 1 0-62.36 0Z" p-id="3643"></path><path d="M854.18 207.44l-145.54-53.19a101.81 101.81 0 0 0-134.41 74.35H449.17a101.81 101.81 0 0 0-134.41-74.35l-145.53 53.19a101.71 101.71 0 1 0 69.82 191.07l11.53-4.21v68.4A228.19 228.19 0 0 0 373.69 883h276.17A228.19 228.19 0 0 0 773 462.7v-68.35l11.39 4.16a101.72 101.72 0 0 0 69.83-191.07zM221.89 351.55a51.72 51.72 0 0 1-35.5-97.15l145.54-53.18a51.26 51.26 0 0 1 17.69-3.15 51.72 51.72 0 0 1 17.81 100.29z m514 147.22A178.39 178.39 0 0 1 828 654.84C828 753.09 748.11 833 649.86 833H373.69c-98.25 0-178.18-79.93-178.18-178.18a178.38 178.38 0 0 1 92.16-156.07 25 25 0 0 0 12.91-21.88V376l84-30.7a101.06 101.06 0 0 0 57.33-52.67 103.7 103.7 0 0 0 5.33-14.06h128.92a102.39 102.39 0 0 0 5.33 14.06 101.07 101.07 0 0 0 57.32 52.67L723 376.08v100.81a25 25 0 0 0 12.87 21.88z m132-178a51.73 51.73 0 0 1-66.33 30.82L656 298.36a51.71 51.71 0 1 1 35.5-97.14L837 254.4a51.78 51.78 0 0 1 30.84 66.33z" p-id="3644"></path><path d="M651.54 564.8c-37.75-20.38-87.38-31.6-139.77-31.6s-102 11.22-139.76 31.6c-42.63 23-66.1 55.34-66.1 91s23.47 68 66.1 91c37.74 20.38 87.38 31.6 139.76 31.6s102-11.22 139.77-31.6c42.62-23 66.09-55.34 66.09-91s-23.47-67.99-66.09-91z m-23.76 138.07c-30.13 16.27-72.41 25.6-116 25.6s-85.88-9.33-116-25.6c-25.32-13.67-39.85-30.81-39.85-47s14.53-33.37 39.85-47c30.13-16.26 72.42-25.59 116-25.59s85.88 9.33 116 25.59c25.33 13.67 39.85 30.82 39.85 47s-14.52 33.33-39.85 47z" p-id="3645"></path></svg>