<?xml version="1.0" standalone="no"?><!DOCTYPE svg PUBLIC "-//W3C//DTD SVG 1.1//EN" "http://www.w3.org/Graphics/SVG/1.1/DTD/svg11.dtd"><svg t="1731378909411" class="icon" viewBox="0 0 1024 1024" version="1.1" xmlns="http://www.w3.org/2000/svg" p-id="3301" xmlns:xlink="http://www.w3.org/1999/xlink" width="200" height="200"><path d="M411 368a33.53 33.53 0 1 0 33.53 33.53A33.53 33.53 0 0 0 411 368zM607.87 368a33.53 33.53 0 1 0 33.53 33.53A33.53 33.53 0 0 0 607.87 368z" p-id="3302"></path><path d="M879 321.16H762.3a25.45 25.45 0 0 0 0.36-4.21c0-47.8-3.27-142.1-7.61-169.46a46.54 46.54 0 0 0-85.31-17.61c-23.93 37.85-54.4 66.81-90.56 86.09-27.17 14.49-47.61 17.81-47.82 17.84h0.15l0.23 1.62h-50.8l0.23-1.62h0.14c-0.2 0-20.64-3.35-47.81-17.84-36.16-19.28-66.63-48.24-90.56-86.09a46.54 46.54 0 0 0-85.31 17.61C253.28 174.85 250 269.15 250 317a26.05 26.05 0 0 0 0.36 4.26h-117.7a25 25 0 0 0-25 25c0 52 15.75 91.27 46.82 116.68 29.89 24.46 67 29.6 92.91 29.6h2.63v246.04a98.35 98.35 0 0 0 98.24 98.24H371c19.45 56 72.78 96.39 135.37 96.39s115.91-40.34 135.37-96.39h22.71a98.35 98.35 0 0 0 98.24-98.24V492.43h1.61c25.9 0 63-5.14 92.92-29.6 31.03-25.4 46.78-64.66 46.78-116.67a25 25 0 0 0-25-25z m-579 14.7a50.5 50.5 0 0 1 50.44-50.45h311.78a50.5 50.5 0 0 1 50.44 50.45v228H300z m406.79-171.27c1.78 18.06 3.45 50.68 4.55 83.68a99.84 99.84 0 0 0-49.12-12.86h-21.29a300 300 0 0 0 65.86-70.82z m-400.9 0a300 300 0 0 0 65.86 70.82h-21.29a99.84 99.84 0 0 0-49.12 12.86c1.1-33.01 2.76-65.62 4.55-83.68zM249 442.5c-17.74 0.23-43.71-2.63-62.86-18.31-14.24-11.64-23.19-29.41-26.73-53H249z m257.34 440.71a93.32 93.32 0 0 1-80.6-46.39h161.19a93.29 93.29 0 0 1-80.59 46.39z m158.08-96.39h-14.83v-43.27a43.9 43.9 0 1 0-50-0.34v43.61h-186.5V743.1a43.89 43.89 0 1 0-50 0.56v43.16h-14.83A48.29 48.29 0 0 1 300 738.58V613.82h412.66v124.76a48.29 48.29 0 0 1-48.24 48.24zM825.72 424c-19.22 15.85-45.28 18.73-63.06 18.48v-71.3h89.6c-3.53 23.44-12.42 41.16-26.54 52.82z" p-id="3303"></path></svg>