<?xml version="1.0" standalone="no"?><!DOCTYPE svg PUBLIC "-//W3C//DTD SVG 1.1//EN" "http://www.w3.org/Graphics/SVG/1.1/DTD/svg11.dtd"><svg t="1731378892098" class="icon" viewBox="0 0 1024 1024" version="1.1" xmlns="http://www.w3.org/2000/svg" p-id="2452" xmlns:xlink="http://www.w3.org/1999/xlink" width="200" height="200"><path d="M421 485.22a33.53 33.53 0 1 0 33.53 33.53A33.53 33.53 0 0 0 421 485.22z" p-id="2453"></path><path d="M617.84989 518.777253m-32.633378 7.702177a33.53 33.53 0 1 0 65.266756-15.404354 33.53 33.53 0 1 0-65.266756 15.404354Z" p-id="2454"></path><path d="M733.62 636.45h1.11a75.25 75.25 0 0 0 75.17-75.17V439.66c70.12-4.51 125.78-63 125.78-134.21 0-74.16-60.33-134.5-134.5-134.5-41.79 0-75.88 15.11-101.56 44.94a180.15 180.15 0 0 0-70.86-14.44H400.11a179.94 179.94 0 0 0-73.83 15.75C300.47 186.5 266 171 223.62 171c-74.17 0-134.5 60.34-134.5 134.5 0 72.61 57.83 132 129.85 134.41v121.37a75.25 75.25 0 0 0 75.17 75.17h1.11v14.81a224.18 224.18 0 0 0 1.3 24l-130.34 17.1a25 25 0 0 0 3.23 49.79 26.19 26.19 0 0 0 3.29-0.21l134.9-17.74a217.11 217.11 0 0 0 14.56 32.52l-100.93 38.36A25 25 0 1 0 239 841.82l113.3-43.06q3.48 3.81 7.15 7.49a219.17 219.17 0 0 0 310 0q5-5 9.62-10.26l120.55 45.83a25 25 0 0 0 17.77-46.74l-109-41.43A216.2 216.2 0 0 0 721.67 723c0.4 0.07 0.81 0.14 1.22 0.19l143 18.8a26.07 26.07 0 0 0 3.29 0.21 25 25 0 0 0 3.22-49.79L732.46 674a225.11 225.11 0 0 0 1.16-22.71zM801.18 221a84.5 84.5 0 0 1 8.72 168.5v-6.91a180.87 180.87 0 0 0-66.57-140.2c15.21-14.55 33.98-21.39 57.85-21.39z m-662.06 84.5a84.59 84.59 0 0 1 84.5-84.5c24.85 0 44.19 7.47 59.72 23.28A180.83 180.83 0 0 0 219 382.59v7.23a84.6 84.6 0 0 1-79.88-84.37zM543.38 818a25 25 0 0 0 0.62-5.51v-43.2c19.29-5.17 32.6-16.14 32.6-28.84 0-17.67-25.79-32-57.6-32s-57.6 14.33-57.6 32c0 12.7 13.31 23.67 32.6 28.84v43.16a25.11 25.11 0 0 0 1 6.87 169.06 169.06 0 0 1-110.65-60.06 24.91 24.91 0 0 0-8.11-10.56 168.25 168.25 0 0 1-30.95-97.44v-37.7a25.86 25.86 0 0 0-0.33-4.06 25 25 0 0 0-24.92-23h-25.9A25.2 25.2 0 0 1 269 561.28V382.59c0-72.31 58.83-131.14 131.14-131.14h94.2v36.2h-69.72a25 25 0 0 0 0 50h69.69v36h-89.69a25 25 0 0 0 0 50H634a25 25 0 0 0 0-50h-89.69v-36H614a25 25 0 0 0 0-50h-69.69v-36.2h84.45c72.31 0 131.14 58.83 131.14 131.14v178.69a25.2 25.2 0 0 1-25.17 25.17H709a25 25 0 0 0-24.77 21.62 25.44 25.44 0 0 0-0.61 5.49v37.7c0 83.43-60.69 152.93-140.24 166.74z" p-id="2455"></path></svg>