<?xml version="1.0" standalone="no"?><!DOCTYPE svg PUBLIC "-//W3C//DTD SVG 1.1//EN" "http://www.w3.org/Graphics/SVG/1.1/DTD/svg11.dtd"><svg t="1731378917404" class="icon" viewBox="0 0 1024 1024" version="1.1" xmlns="http://www.w3.org/2000/svg" p-id="3982" xmlns:xlink="http://www.w3.org/1999/xlink" width="200" height="200"><path d="M428.03 575.05m-33.53 0a33.53 33.53 0 1 0 67.06 0 33.53 33.53 0 1 0-67.06 0Z" p-id="3983"></path><path d="M604.84997 575.077942m-32.633378 7.702177a33.53 33.53 0 1 0 65.266757-15.404354 33.53 33.53 0 1 0-65.266757 15.404354Z" p-id="3984"></path><path d="M839.55 184.58c-11.13-42.28-35.16-58.84-53.67-65.28-4.59-1.8-19-6.68-38.73-5.77-20.31 0.93-50.29 8.42-77.76 38.75-3.09 3.41-68.77 77.05-91.66 215.28a220.94 220.94 0 0 0-132.5 0.72c-22.78-138.69-88.68-212.58-91.74-215.95C326 122 296 114.46 275.69 113.53c-19.7-0.9-34.14 4-38.73 5.77-18.51 6.44-42.54 23-53.67 65.28a170.73 170.73 0 0 0-5.44 43.58c0 38.2 7 77.84 20.8 117.83a496.34 496.34 0 0 0 45.13 95 561.84 561.84 0 0 0 57.48 78.67 219.43 219.43 0 0 0-7.45 54.62 116 116 0 0 0-56 99.35A253.92 253.92 0 0 0 491.4 927.51c2.56 0.06 19.34 0.47 25.5 0.47h0.1c5.71 0 20.38-0.39 23.28-0.47a253.92 253.92 0 0 0 253.53-253.92 116.44 116.44 0 0 0-62.45-103 219.15 219.15 0 0 0-8-53.09 566 566 0 0 0 55.7-76.5c19-31.37 34.22-63.32 45.13-95C838 306 845 266.36 845 228.15a170.71 170.71 0 0 0-5.45-43.57zM285.89 414c-26.51-43.93-58.1-111.87-58-186v-0.64c-0.29-13.44 3.82-53.46 25.78-60.81 0.62-0.21 1.24-0.45 1.84-0.7a50.32 50.32 0 0 1 17.92-2.27c15.75 0.72 30.23 8.26 43 22.39 0.19 0.21 18.53 20.85 38.06 60C370 277.12 389.11 326 397.94 390.13a216.73 216.73 0 0 0-19.58 13.61c-49.56-76.16-63.64-147.84-63.79-148.62a25 25 0 0 0-49.14 9.22c0.69 3.72 16.84 87.3 76.64 175.12a217 217 0 0 0-19.19 27.94 527.92 527.92 0 0 1-36.99-53.4z m457.92 259.59c0 112.44-91.47 203.92-203.91 203.92h-0.7c-4.68 0.13-17.75 0.46-22.22 0.46h-0.05c-4.92 0-19.42-0.34-24.6-0.47h-0.62c-112.44 0.01-203.91-91.5-203.91-203.91a66 66 0 0 1 34.93-58.3 39.81 39.81 0 0 0 21.09-35.94v-2.78c0-93.09 75.73-168.82 168.82-168.82s168.82 75.73 168.82 168.82v0.09a40.44 40.44 0 0 0 23.65 36.75 66.29 66.29 0 0 1 38.7 60.18zM795 227.18v0.72c0.06 74.18-31.53 142.12-58 186a526.35 526.35 0 0 1-35.62 51.7 216.82 216.82 0 0 0-18-26c59.91-87.89 76.08-171.58 76.77-175.31a25 25 0 0 0-49.15-9.17c-0.15 0.78-14.25 72.55-63.88 148.76a218 218 0 0 0-22-15.11c8.91-63.43 27.84-111.87 43.28-142.85 19.53-39.2 37.88-59.84 38-60 28-30.92 57-21.63 61.1-20.08a12.86 12.86 0 0 0 1.7 0.64c21.97 7.32 26.08 47.34 25.8 60.7z" p-id="3985"></path><path d="M603.85 756.32c-19.83 14.5-34.64 16-37.06 16.21-0.92-0.31-6.87-2.75-16.46-16.35-2.87-4.07-5.32-8.1-7.23-11.47 16.11-5.19 27-14.87 27-26 0-16.57-24.18-30-54-30s-54 13.43-54 30c0 11.07 10.81 20.74 26.87 25.94-1.91 3.37-4.37 7.41-7.24 11.49-9.59 13.6-15.55 16-16.46 16.35h-0.05c-2.42-0.16-17.24-1.71-37.06-16.21a25 25 0 1 0-29.52 40.35c33.61 24.59 61.57 25.86 66.69 25.87h0.18c17.81 0 34.78-9.73 50.54-28.94 15.77 19.21 32.74 28.94 50.55 28.94h0.18c5.13 0 33.08-1.28 66.69-25.87a25 25 0 1 0-29.52-40.35z" p-id="3986"></path></svg>