<?xml version="1.0" standalone="no"?><!DOCTYPE svg PUBLIC "-//W3C//DTD SVG 1.1//EN" "http://www.w3.org/Graphics/SVG/1.1/DTD/svg11.dtd"><svg t="1731378899521" class="icon" viewBox="0 0 1024 1024" version="1.1" xmlns="http://www.w3.org/2000/svg" p-id="2622" xmlns:xlink="http://www.w3.org/1999/xlink" width="200" height="200"><path d="M404.03 433.56m-33.53 0a33.53 33.53 0 1 0 67.06 0 33.53 33.53 0 1 0-67.06 0Z" p-id="2623"></path><path d="M620.860484 433.586253m-32.633378 7.702177a33.53 33.53 0 1 0 65.266756-15.404354 33.53 33.53 0 1 0-65.266756 15.404354Z" p-id="2624"></path><path d="M840.91 511.61a25 25 0 1 0-17.82-46.71L770.51 485v-50.52l70.4-26.87a25 25 0 1 0-17.82-46.71L770.51 381v-46.74h0.49V209.64a95.5 95.5 0 0 0-191 0v94.62H443v-94.62a95.5 95.5 0 0 0-191 0v124.62h0.51v47l-53.45-20.4a25 25 0 1 0-17.83 46.71l71.28 27.2v50.53l-53.45-20.4a25 25 0 0 0-17.83 46.71l71.28 27.2v43.49l-53.45-20.4a25 25 0 0 0-17.83 46.71l71.28 27.2v44.72a141.17 141.17 0 0 0-47 105.23c0 78 63.47 141.5 141.5 141.5H676c78 0 141.5-63.48 141.5-141.5a141.21 141.21 0 0 0-47-105.23v-45l70.4-26.87a25 25 0 1 0-17.82-46.71L770.51 582v-43.52zM630 209.64a45.5 45.5 0 0 1 91 0v94.62h-91z m-282.5-45.5a45.55 45.55 0 0 1 45.5 45.5v94.62h-91v-94.62a45.55 45.55 0 0 1 45.5-45.5zM676 877.26h-30.53v-40.9a25 25 0 1 0-50 0v40.9h-166v-40.9a25 25 0 1 0-50 0v40.9H347a91.5 91.5 0 0 1 0-183h28.62a25 25 0 0 0 25-26.47c-0.14-2.34-0.21-4.51-0.21-6.64a111.13 111.13 0 1 1 222.25 0c0 2.13-0.07 4.3-0.2 6.64a25 25 0 0 0 25 26.47H676a91.5 91.5 0 0 1 0 183z m0-233h-4.26C663.28 563.32 594.65 500 511.51 500s-151.78 63.3-160.25 144.24H347a140.93 140.93 0 0 0-44.5 7.17V354.26h418v297.17a140.93 140.93 0 0 0-44.5-7.17z" p-id="2625"></path></svg>