<?xml version="1.0" standalone="no"?><!DOCTYPE svg PUBLIC "-//W3C//DTD SVG 1.1//EN" "http://www.w3.org/Graphics/SVG/1.1/DTD/svg11.dtd"><svg t="1731378904365" class="icon" viewBox="0 0 1024 1024" version="1.1" xmlns="http://www.w3.org/2000/svg" p-id="2962" xmlns:xlink="http://www.w3.org/1999/xlink" width="200" height="200"><path d="M817.7 310.37a332.05 332.05 0 1 0-532.12 372.28v132.88a98.36 98.36 0 0 0 98.25 98.24h255.91A98.35 98.35 0 0 0 738 815.53V682.65a332.33 332.33 0 0 0 79.7-372.28zM511.78 157.6a280.47 280.47 0 0 1 136 34.86v145.73a58.11 58.11 0 0 0 0 105v25.36c0 75-61 136-136 136s-136-61-136-136v-25.42a58.12 58.12 0 0 0 0-104.86V192.46a280.46 280.46 0 0 1 136-34.86z m184.81 495a25 25 0 0 0-8.59 18.91v144a48.29 48.29 0 0 1-48.24 48.24H383.83a48.3 48.3 0 0 1-48.25-48.24v-144a25 25 0 0 0-8.6-18.88 282 282 0 0 1-14.61-412.43q6.51-6.51 13.38-12.53v110.55a58.12 58.12 0 0 0 0 105v25.39c0 94.14 70.35 172.18 161.25 184.39v43.3l-52.18 52.17a25 25 0 0 0 35.36 35.36L512 742l41.82 41.82a25 25 0 0 0 35.36-35.36L537 696.25v-43.36c90.69-12.35 160.82-90.29 160.82-184.32V443.1a58.13 58.13 0 0 0 0-104.8V227.67q6.84 6 13.38 12.53a282 282 0 0 1-14.61 412.43z" p-id="2963"></path></svg>