<?xml version="1.0" standalone="no"?><!DOCTYPE svg PUBLIC "-//W3C//DTD SVG 1.1//EN" "http://www.w3.org/Graphics/SVG/1.1/DTD/svg11.dtd"><svg t="1731378901718" class="icon" viewBox="0 0 1024 1024" version="1.1" xmlns="http://www.w3.org/2000/svg" p-id="2792" xmlns:xlink="http://www.w3.org/1999/xlink" width="200" height="200"><path d="M854 158.52a61.85 61.85 0 0 0-97.3-12.82L650 252.39h-49v-31.7a89.5 89.5 0 0 0-179 0v31.7h-49.44L265.87 145.7a61.85 61.85 0 0 0-97.3 12.82c-17.09 29.65-23.26 61-18.35 93.32 3.8 25 14.26 50.09 31.07 74.69 27.49 40.21 63 65.69 64.51 66.76a25 25 0 0 0 7.45 3.6v398.67a98.35 98.35 0 0 0 98.24 98.24h316.16a98.35 98.35 0 0 0 98.24-98.24V397.65a24.91 24.91 0 0 0 10.9-4.36c1.5-1.07 37-26.55 64.51-66.76 16.82-24.6 27.27-49.73 31.07-74.69 4.92-32.27-1.26-63.67-18.37-93.32z m-382 62.17a39.5 39.5 0 0 1 79 0v224a39.5 39.5 0 1 1-79 0z m39.5 313.5a89.6 89.6 0 0 0 89.5-89.5v-142.3h64.45a50.5 50.5 0 0 1 50.44 50.45v268H303.25v-268a50.5 50.5 0 0 1 50.44-50.45H422v142.3a89.6 89.6 0 0 0 89.5 89.5zM221.9 297.32c-12.29-18.22-19.8-36.25-22.34-53.58-3-20.87 1-40.58 12.33-60.25a11.84 11.84 0 0 1 18.62-2.43l80.75 80.75a100.78 100.78 0 0 0-56.52 73.72 233.44 233.44 0 0 1-32.84-38.21zM667.65 843.8H351.49a48.29 48.29 0 0 1-48.24-48.24V670.8h412.64v124.76a48.29 48.29 0 0 1-48.24 48.24zM823 243.74c-2.53 17.33-10 35.36-22.33 53.58a236.7 236.7 0 0 1-35.86 41 100.72 100.72 0 0 0-54.64-75.39l81.88-81.88a11.85 11.85 0 0 1 18.63 2.43c11.37 19.68 15.4 39.39 12.32 60.26z" p-id="2793"></path><path d="M387.69 764.29m-43.89 0a43.89 43.89 0 1 0 87.78 0 43.89 43.89 0 1 0-87.78 0Z" p-id="2794"></path><path d="M624.84 764.29m-43.89 0a43.89 43.89 0 1 0 87.78 0 43.89 43.89 0 1 0-87.78 0Z" p-id="2795"></path></svg>