<?xml version="1.0" standalone="no"?><!DOCTYPE svg PUBLIC "-//W3C//DTD SVG 1.1//EN" "http://www.w3.org/Graphics/SVG/1.1/DTD/svg11.dtd"><svg t="1731378915715" class="icon" viewBox="0 0 1024 1024" version="1.1" xmlns="http://www.w3.org/2000/svg" p-id="3812" xmlns:xlink="http://www.w3.org/1999/xlink" width="200" height="200"><path d="M412 509.79a33.53 33.53 0 1 0 33.53 33.53A33.53 33.53 0 0 0 412 509.79z" p-id="3813"></path><path d="M608.871915 543.31763m-30.97768 12.831375a33.53 33.53 0 1 0 61.955361-25.662751 33.53 33.53 0 1 0-61.955361 25.662751Z" p-id="3814"></path><path d="M924.9 484.7a61.54 61.54 0 0 0-37.38-41.32l-127.87-48.56v-12.3a109.87 109.87 0 0 0 44.63-28.38 109.53 109.53 0 0 0-78.71-184.95 110.06 110.06 0 0 0-26.8 3.14 1.57 1.57 0 0 1-1.8-1 109.51 109.51 0 0 0-183.54-29.81 1.12 1.12 0 0 1-0.93 0.36 1.08 1.08 0 0 1-0.92-0.36 109.51 109.51 0 0 0-183.62 30 1.71 1.71 0 0 1-2 1.13 109.5 109.5 0 0 0-29.72-3.4c-57 1.27-104 46.85-106.9 103.76a108.63 108.63 0 0 0 30 81.16 109.79 109.79 0 0 0 44.56 28.36V395l-127.42 48.38A61.54 61.54 0 0 0 99.1 484.7a57.47 57.47 0 0 0 10.59 51.68c25.21 31.3 60.95 47.53 104.15 47.53a185.44 185.44 0 0 0 19.31-1 216.8 216.8 0 0 0 30.74-5.57v94.26a245.76 245.76 0 0 0 245.75 245.76h4.25A245.76 245.76 0 0 0 759.65 671.6v-94.41a216.79 216.79 0 0 0 31.2 5.69 185.44 185.44 0 0 0 19.31 1c43.2 0 78.94-16.23 104.15-47.53a57.47 57.47 0 0 0 10.59-51.65z m-669.32-165a59.55 59.55 0 0 1 58-98.66 51.36 51.36 0 0 0 60.56-30.36 59.52 59.52 0 0 1 99.8-16.29 51.2 51.2 0 0 0 38.58 17.47 51.19 51.19 0 0 0 38.58-17.47 59.52 59.52 0 0 1 99.76 16.2 51.33 51.33 0 0 0 59.83 30.29 60.43 60.43 0 0 1 14.58-1.7 59.53 59.53 0 1 1-14.84 117.28 51.32 51.32 0 0 0-59.77 29.85A59.52 59.52 0 0 1 551.08 382a51.33 51.33 0 0 0-77.16 0 59.51 59.51 0 0 1-99.59-15.81A52.22 52.22 0 0 0 350 340.14a50.84 50.84 0 0 0-36-3.85 59.9 59.9 0 0 1-15.18 1.95 59 59 0 0 1-43.24-18.53zM226.7 533.27c-34.07 3.28-60.34-6.23-78.08-28.25a7.9 7.9 0 0 1-1.26-7.23 11.33 11.33 0 0 1 6.87-7.66l109.66-41.65v76.78a174.7 174.7 0 0 1-37.19 8.01zM537.22 866v-41.77c18.08-5.4 30.38-16 30.38-28.21 0-17.67-25.79-32-57.6-32s-57.6 14.33-57.6 32c0 13.18 14.34 24.49 34.82 29.39v40.65C389.8 854.9 313.89 772 313.89 671.6V546.4a25 25 0 0 0 0-8.33V387.19a109 109 0 0 0 12.8-2.56c0.56-0.15 1.3 0.4 1.65 1.21a109.52 109.52 0 0 0 183.24 29.09 1.07 1.07 0 0 1 0.92-0.37 1.16 1.16 0 0 1 0.93 0.36A109.51 109.51 0 0 0 696.59 386a1.54 1.54 0 0 1 1.69-1 106.58 106.58 0 0 0 11.37 2.19V671.6c0 100.05-75.45 182.79-172.43 194.4z m338.16-361c-17.74 22-44 31.53-78.08 28.25a174.48 174.48 0 0 1-37.65-8.16v-76.8l110.12 41.82a11.33 11.33 0 0 1 6.87 7.66 7.9 7.9 0 0 1-1.26 7.23z" p-id="3815"></path></svg>