<?xml version="1.0" standalone="no"?><!DOCTYPE svg PUBLIC "-//W3C//DTD SVG 1.1//EN" "http://www.w3.org/Graphics/SVG/1.1/DTD/svg11.dtd"><svg t="1731378886187" class="icon" viewBox="0 0 1024 1024" version="1.1" xmlns="http://www.w3.org/2000/svg" p-id="2281" xmlns:xlink="http://www.w3.org/1999/xlink" width="200" height="200"><path d="M407.02755 445.541681m-30.977681 12.831375a33.53 33.53 0 1 0 61.955361-25.662751 33.53 33.53 0 1 0-61.955361 25.662751Z" p-id="2282"></path><path d="M623.95 445.54m-33.53 0a33.53 33.53 0 1 0 67.06 0 33.53 33.53 0 1 0-67.06 0Z" p-id="2283"></path><path d="M614 306.88a135.09 135.09 0 0 0-91.74 35.77 9.14 9.14 0 0 1-12.48 0 135.53 135.53 0 1 0-109 234.19v57.33a119.39 119.39 0 1 0 238.78 0v-58.66a135.56 135.56 0 0 0-24.72-268.63zM699.49 441A85.47 85.47 0 0 1 620 527.71a32.72 32.72 0 0 0-30.39 32.52v73.94a69.39 69.39 0 1 1-138.78 0v-73.65a32.62 32.62 0 0 0-32.74-32.59 85.54 85.54 0 0 1-85.51-86.76c0.64-46.19 38.76-84 85-84.29a85.13 85.13 0 0 1 58.43 22.57 59.14 59.14 0 0 0 80.2 0 85.31 85.31 0 0 1 58.43-22.57c46.03 0.29 84.14 38.05 84.85 84.12z" p-id="2284"></path><path d="M792.5 168.72c-19.39 0-46 2.77-80.32 24.35a25.23 25.23 0 0 0-2.42 1.74 319.18 319.18 0 0 0-391.23 2.63 24.87 24.87 0 0 0-5.21-4.37c-34.27-21.58-60.93-24.35-80.32-24.35-75.82 0-137.5 61.69-137.5 137.5a137.55 137.55 0 0 0 101.16 132.64c-0.09 3.26-0.16 6.52-0.16 9.79a319.07 319.07 0 0 0 45.95 165.17A147.08 147.08 0 0 1 263.64 690a197.62 197.62 0 0 0 53.86 135.58 203.44 203.44 0 0 0 133.16 63.55c3.57 0.35 32.68 3.09 69.31 3.09 46.33 0 64.74-2.23 70.61-3.23a211.84 211.84 0 0 0 130.16-63.94c35.82-37.27 55.55-85.22 55.55-135v-13.7a148.05 148.05 0 0 1 18.79-72.06 319.75 319.75 0 0 0 40.42-155.64c0-3.92-0.09-7.83-0.24-11.73A137.52 137.52 0 0 0 930 306.22c0-75.81-61.68-137.5-137.5-137.5zM202.21 388.14A87.51 87.51 0 0 1 233 218.72c13 0 27.8 1.71 48.15 13.34a316.85 316.85 0 0 0-78.94 156.08zM751.43 579.9a198.12 198.12 0 0 0-25.14 96.45V690c0 36.83-14.77 72.48-41.6 100.38a161.78 161.78 0 0 1-100.13 49 13.49 13.49 0 0 0-2.65 0.41c-2.23 0.36-17.21 2.46-61.94 2.46-35.63 0-64.33-2.84-64.6-2.87l-0.63-0.06A153.51 153.51 0 0 1 354 791.38 147.79 147.79 0 0 1 313.64 690a197.16 197.16 0 0 0-28.41-102.09 269.55 269.55 0 0 1 229.86-408.76h0.91c71.65 0 139.15 27.95 190.12 78.76 51.19 51 79.38 118.76 79.38 190.74a269.57 269.57 0 0 1-34.07 131.25z m77.83-194.27a318.8 318.8 0 0 0-80.77-155.84c18.24-9.58 31.92-11.07 44-11.07a87.5 87.5 0 0 1 36.76 166.91z" p-id="2285"></path></svg>